/* XPM */
static char *state_32_xpm[] = {
/* width height num_colors chars_per_pixel */
"    32    32      256            2",
/* colors */
"`` c #04060c",
"`. c #4c8694",
"`# c #044a5c",
"`a c #042634",
"`b c #7cc6dc",
"`c c #444e5c",
"`d c #8c9aa3",
"`e c #24263a",
"`f c #04161b",
"`g c #ccd6dc",
"`h c #24667c",
"`i c #9ce6fc",
"`j c #043640",
"`k c #5ca6ac",
"`l c #244e5c",
"`m c #1c1624",
"`n c #44728c",
"`o c #14262e",
"`p c #9cb2b8",
"`q c #243642",
"`r c #041e2c",
"`s c #6c868c",
"`t c #64717c",
"`u c #14060c",
"`v c #b4cad4",
"`w c #acf7fc",
"`x c #0c5a74",
"`y c #84d6ec",
"`z c #245974",
"`A c #a4a6ac",
"`B c #6c7a81",
"`C c #4c96ac",
"`D c #e4eef4",
"`E c #b4eefc",
"`F c #040e12",
"`G c #141621",
"`H c #74b6bc",
"`I c #142f3c",
"`J c #14363c",
"`K c #34404c",
"`L c #144650",
"`M c #042e3c",
"`N c #8ca6ac",
"`O c #242e39",
"`P c #4c606c",
"`Q c #a4effc",
"`R c #244254",
"`S c #141e29",
"`T c #7c828c",
"`U c #1c1e2e",
"`V c #b4bcc4",
"`W c #6c8288",
"`X c #041624",
"`Y c #344754",
"`Z c #6ca2b8",
"`0 c #94d6e8",
"`1 c #f4fafc",
"`2 c #2c768c",
"`3 c #1c2632",
"`4 c #2c3643",
"`5 c #144254",
"`6 c #4c8e99",
"`7 c #94cadc",
"`8 c #ace6f9",
".` c #447e8c",
".. c #140e19",
".# c #3c5661",
".a c #040f1c",
".b c #7cb6cc",
".c c #242e44",
".d c #94def1",
".e c #7c8694",
".f c #747a87",
".g c #5c97ac",
".h c #f4eeec",
".i c #144e5c",
".j c #0c0911",
".k c #44566b",
".l c #7cb2c4",
".m c #acb0bc",
".n c #0c2129",
".o c #1c5f72",
".p c #14384e",
".q c #043248",
".r c #9ca2a8",
".s c #3c4f57",
".t c #0c2837",
".u c #8c9ea4",
".v c #e4eaec",
".w c #64aeb4",
".x c #546a74",
".y c #bcf6fc",
".z c #1c2f3a",
".A c #241f31",
".B c #0c1927",
".C c #5c92a8",
".D c #1c1018",
".E c #7cbfcf",
".F c #0c4f5e",
".G c #8cc6dc",
".H c #3c6674",
".I c #a4e7f3",
".J c #044154",
".K c #24161c",
".L c #24384c",
".M c #64767c",
".N c #141a2c",
".O c #5c6674",
".P c #142034",
".Q c #1c293c",
".R c #346071",
".S c #9ce0ef",
".T c #4c5064",
".U c #2c2a3c",
".V c #0c1619",
".W c #d4e6e4",
".X c #1c192c",
".Y c #142a3c",
".Z c #a4aeb0",
".0 c #b4fefc",
".1 c #1c5868",
".2 c #acaab4",
".3 c #6c7a8c",
".4 c #549eb4",
".5 c #b4f2fb",
".6 c #0c0e14",
".7 c #1c3634",
".8 c #2c313a",
"#` c #546674",
"#. c #a4e1f4",
"## c #84969c",
"#a c #34829c",
"#b c #84929c",
"#c c #64a1b7",
"#d c #347284",
"#e c #dcdee4",
"#f c #246e84",
"#g c #3c7a8c",
"#h c #548294",
"#i c #9caabc",
"#j c #748e94",
"#k c #f4eaec",
"#l c #6cbad4",
"#m c #245e74",
"#n c #b4c2c7",
"#o c #94d2e4",
"#p c #f4f6f4",
"#q c #5c727c",
"#r c #548694",
"#s c #0c3644",
"#t c #64a9b9",
"#u c #1c4857",
"#v c #2c3e4a",
"#w c #54909c",
"#x c #1c4e64",
"#y c #6cb0c2",
"#z c #3c7e8c",
"#A c #acb6bc",
"#B c #bcfefc",
"#C c #8ccedc",
"#D c #84c7d8",
"#E c #9499a1",
"#F c #2c4e64",
"#G c #6c7284",
"#H c #5497aa",
"#I c #ecf1f5",
"#J c #0c2f3b",
"#K c #94a3a7",
"#L c #3c4856",
"#M c #9cd7ec",
"#N c #347a94",
"#O c #1c4050",
"#P c #0c111e",
"#Q c #84b6cc",
"#R c #2c3144",
"#S c #fcf0f0",
"#T c #5c6b77",
"#U c #84c1d4",
"#V c #4c8aa4",
"#W c #0c485c",
"#X c #2c6a7c",
"#Y c #043a4c",
"#Z c #140a1c",
"#0 c #b4f7fc",
"#1 c #8cdaec",
"#2 c #a4aabc",
"#3 c #bceafc",
"#4 c #3c424c",
"#5 c #54606c",
"#6 c #acf0fc",
"#7 c #fcfbfc",
"#8 c #2c394c",
"a` c #140e24",
"a. c #7c8a9c",
"a# c #14526c",
"aa c #0c0a1c",
"ab c #0c2234",
"ac c #9ca6b4",
"ad c #3c5264",
"ae c #1c3144",
"af c #1c1224",
"ag c #0c526c",
"ah c #a4e9fc",
"ai c #1c5a74",
"aj c #1c3844",
"ak c #2c7284",
"al c #74868a",
"am c #74828a",
"an c #4c5664",
"ao c #0c3248",
"ap c #949ea2",
"aq c #6c7682",
"ar c #dce6ec",
"as c #74bacc",
"at c #2c5e7c",
"au c #bcc2cc",
"av c #bccad4",
"aw c #145a74",
"ax c #4c8ea4",
"ay c #3c566c",
"az c #a4aebc",
"aA c #9cd2e4",
"aB c #040a11",
"aC c #042a37",
"aD c #445260",
"aE c #242a39",
"aF c #041a1c",
"aG c #ccdae4",
"aH c #24525f",
"aI c #1c1a21",
"aJ c #447684",
"aK c #142a30",
"aL c #243a42",
"aM c #042229",
"aN c #140a14",
"aO c #a4aaaf",
"aP c #6c7e83",
"aQ c #041214",
"aR c #141a23",
"aS c #143a44",
"aT c #24323c",
"aU c #14222b",
"aV c #1c222e",
"aW c #041a28",
"aX c #1c2a33",
"aY c #2c3a44",
"aZ c #94cee4",
"a0 c #aceafa",
"a1 c #448294",
"a2 c #14121c",
"a3 c #7cbad4",
"a4 c #243245",
"a5 c #7c8a90",
"a6 c #747e88",
"a7 c #f4f2f4",
"a8 c #145260",
/* pixels */
"#S#S#I`g`p`d##.u`d.u.u`d#K.rap.rapap#K.r#K#E#E#E#E`d`d`p`g#I#p.h",
"#7#e`V#b`t`P#``P`P#`#T#T`t`t#Gaqa6`Baq`t`t#T.x.O#5#5#5#q##`V#e`1",
"`D.m.Mad#v#v#8`4aL.LaL`4.L`4`4.L.L`q.L`q.L.L.L.LaY#8#8#vadaq#A`D",
"`val`Y`qa4.L`4a4#8#R.L`4#R#8`4#Ra4#R`4.L`4.L.L#v`q#8`qa4a4`Yalav",
"`N`Paja4a4`4`4a4.8aT#R`4a4a4a4a4#Ra4.c`O`O.8aT.8`q`q.La4a4.L#5`N",
"#j.#aTa4a4.cae`q.7`q`qaeaLaL`qaL`q`q`q`4`4.8.8`O`OaT`O.c#R.cada5",
"al#L.z.caE.z`q`q`J`l.R.R.RaH`5`L#u#O#OajaTae`O.8.z.8aE.U.caE.s`s",
"`W#L.AaE`eaX`q.7#m#c#M`8.Sa3#tas.b`Z#h.R`Rae.QaX`3`O.U`e`eaV`Yam",
"`T#4`o`3`3.z.tat#D`E`8ah`8a0#0a0#3`E`8#o.g`l.p`IaXaE`U.UaU.Q`Yam",
"a6`K`o.P`3aXaS.g`Ea0#.`8a0aha0aha0a0#6#6a0.l.R#JaK`3.A.A`SaK`Ya6",
"a6`Y.naU`3`o`laZ#6#..I`8a0.S#y#H.g#y.d`i`Q`E#Q#u.t`oaI`U`S`o#va6",
"aP#v.naRaU.naH.S`E`8#6.5.Eak.i.oawag`2#l`i#6#6#raS.n.XaI`SaUaYam",
"`W`q.B.BaI.n#u#Da0#.a0#.#z#W.4aZ`y.4`x#a`i`ia0`0aH.taR`G`G`S`qa6",
"`W.7#P`Ga2.n#s#c#6`8a0`0.1#W#o.y.0`w.d`bah#6ah#6aJ#JaRa2a2.V`O.3",
"aP`O`F.6`u.VaC#H#0#.a0.I#g`j#f`6#t.Ea0.5a0`8a0#0#w#J.B.j.6`FaE.f",
"aPaX.j.jaN.6aM.g`Ea0a0#6#U`h#Y.J.J.F#m`Z`8`E`8.5#caC.a.j.j`F`Oa6",
"a6`O`F.j.j`F`M#w.5`E#.`E`E.S.w`k#z#W`M.F`H`Ea0#0.gaC.6.j.j.6aXaP",
"aPaX`F.j.j`FaMaJ#6.I.I`8.E#.#B`w`8.Ga8`M`6#0a0`E#HaC`F``.j.a`Oam",
"a6aX`F.j.j.jaF#x.S`w`w`b.o#f`b`w#B#C`#.q#H`E.I`E#y`j`f``.jaBaXa6",
"a6aX`F.6.j.j`f#s.w#6`Q#1`Cag`#ak#V.1.J#d`0`Ea0#6.d`LaF.6.j.a`e`B",
"a6.zaQ.6.j..aQ`r.1#o#0#6`i#l#N#ma#a#.`as`E.5#6a0`i`L`f.6.jaQaTaP",
"a6`OaQ.6.ja2#PaFaM#haA#0#0#0#6`0`0ah`E.5ah#6ah.5#U`JaQ...6.6aTaP",
".faT`f#P#Zaf#P`faFaM.H`7#6#0#0.5#0#0#6#6a0.5#0#6`n.t#PaN...aaTaP",
"`B`4`f#P..a2.6.V`G`X`a#u`..E.Sa0a0.S#6#6#B#0.I`6ao`X`GaN`m.6.7al",
"aPaY#Paaa``m`G#P#P.B.BabaC`5#xataH`zak#H.wax`z.q.N`G`G..a2#P#8`W",
"aPaY#P.X.X`G#P`S`m.K.X`S.N.n.P.t.Qab.t`I#s.tab.naR#P`G.X.N.B#8aP",
"a5#L.P.N.N.N`S.n.DaR`GaRaR.N.B.B`m.X`S.n.BaR`G`m.B.B.N`S.N.P`Ya.",
"#KaDaV.B.B.P.P`SaU`S`U`S.P`SaV.P.X.X.P.NaVaV.X.X.P.Pab.B`S.PaD#i",
"aG`B#v#8`3.B.P.P`3aU`S`S`U`U`U.X`SaVaV`S`S.PaVaV.P.P.P.Pa4#v`BaG",
"#I.maq#L.La4aE.c.Q.z.Qae.ca4.c`O`I.zae.z.Y.zae.z.c.z`q`q`Y`t#A#I",
"#7#Iau.e.O#5.T`c.kay.k.k.k.kaDadayay.#ad.kay.#ay`c.T#5.xa5au.v#7",
".h.h#p.W#nazac.maOaO`AaOaOaOaO.ZaO.2aO.2`A.2`AaO#2ac.Z#n.W#pa7#k"
};
