/* XPM */
static char *task_32_xpm[] = {
/* width height num_colors chars_per_pixel */
"    32    32      256            2",
/* colors */
"`` c #040e18",
"`. c #448a98",
"`# c #1c4e5c",
"`a c #042e3c",
"`b c #545e6c",
"`c c #242e3b",
"`d c #2c6e84",
"`e c #a4aab0",
"`f c #041e2c",
"`g c #3c4e5c",
"`h c #243e51",
"`i c #1c1e29",
"`j c #547684",
"`k c #748a8e",
"`l c #0c3e4c",
"`m c #6c7684",
"`n c #1c627c",
"`o c #3c6e80",
"`p c #d4dae4",
"`q c #142e3b",
"`r c #042638",
"`s c #344250",
"`t c #447e94",
"`u c #243638",
"`v c #74a2bc",
"`w c #2c4e5e",
"`x c #143642",
"`y c #1c2630",
"`z c #3c6264",
"`A c #6c8288",
"`B c #3c768f",
"`C c #e4f2ec",
"`D c #5caac4",
"`E c #244659",
"`F c #548698",
"`G c #5c8e94",
"`H c #acc2cc",
"`I c #142e46",
"`J c #142633",
"`K c #141e28",
"`L c #2c565f",
"`M c #8c9aa4",
"`N c #343a44",
"`O c #3c6674",
"`P c #6496a4",
"`Q c #1c4654",
"`R c #2c5e6c",
"`S c #243646",
"`T c #1c263c",
"`U c #242e47",
"`V c #647681",
"`W c #8ca2a4",
"`X c #f4faf4",
"`Y c #141620",
"`Z c #a4b6bc",
"`0 c #1c3e4b",
"`1 c #4c6e7c",
"`2 c #7c8694",
"`3 c #2c667c",
"`4 c #1c5a6c",
"`5 c #248294",
"`6 c #2c3e4d",
"`7 c #6c7e88",
"`8 c #344a6c",
".` c #344e5c",
".. c #748698",
".# c #4c767c",
".a c #2c4654",
".b c #6c8ea4",
".c c #546e7c",
".d c #34768c",
".e c #1c2237",
".f c #446e80",
".g c #eceadc",
".h c #1c2e34",
".i c #344a52",
".j c #1c3648",
".k c #24262e",
".l c #f4f6f4",
".m c #14263d",
".n c #4c6676",
".o c #2c3645",
".p c #1c4e6c",
".q c #0c3646",
".r c #346e84",
".s c #0c2235",
".t c #547e8c",
".u c #749aac",
".v c #0c2635",
".w c #4486a1",
".x c #748288",
".y c #648694",
".z c #5c92a0",
".A c #1c2e45",
".B c #141e34",
".C c #64727c",
".D c #2c2e38",
".E c #3c5664",
".F c #5c7688",
".G c #44768a",
".H c #244764",
".I c #5c828c",
".J c #949aa4",
".K c #446675",
".L c #9caab4",
".M c #346681",
".N c #547284",
".O c #041624",
".P c #0c2e38",
".Q c #a4b2bc",
".R c #0c1e28",
".S c #24425c",
".T c #24222c",
".U c #143e4c",
".V c #747a7f",
".W c #3c718c",
".X c #74b6d4",
".Y c #2c526c",
".Z c #4c616c",
".0 c #eceef2",
".1 c #648a9c",
".2 c #c4d0dc",
".3 c #345664",
".4 c #2c3244",
".5 c #1c1a24",
".6 c #b4becc",
".7 c #1c4154",
".8 c #5c6a79",
"#` c #1c2f3c",
"#. c #6cbed4",
"## c #fce6d4",
"#a c #6c969c",
"#b c #bcc6c4",
"#c c #dce2e4",
"#d c #84a5bc",
"#e c #8498a4",
"#f c #647e84",
"#g c #5c9eb0",
"#h c #acbecc",
"#i c #4482a4",
"#j c #eceaf4",
"#k c #647a94",
"#l c #444e5c",
"#m c #7c8a9c",
"#n c #3c465c",
"#o c #346274",
"#p c #acb6bc",
"#q c #445664",
"#r c #74aabc",
"#s c #44626c",
"#t c #3c4a5c",
"#u c #244e58",
"#v c #acaaac",
"#w c #4c8290",
"#x c #2c363c",
"#y c #242a3c",
"#z c #94a2ab",
"#A c #245664",
"#B c #fcf2ec",
"#C c #245064",
"#D c #0c1624",
"#E c #3c526c",
"#F c #34465c",
"#G c #14394c",
"#H c #2c5a6c",
"#I c #3c667c",
"#J c #2c5e7c",
"#K c #fcfcf4",
"#L c #141a2c",
"#M c #344e6c",
"#N c #4c768c",
"#O c #2c4664",
"#P c #f4e6dc",
"#Q c #34718c",
"#R c #3c5a74",
"#S c #447894",
"#T c #5c869c",
"#U c #9caec4",
"#V c #0c3144",
"#W c #ecf2fc",
"#X c #648ea4",
"#Y c #acbacc",
"#Z c #4c8a9c",
"#0 c #747e88",
"#1 c #24223c",
"#2 c #4c869c",
"#3 c #24627c",
"#4 c #3c6274",
"#5 c #e4f2fc",
"#6 c #446e8c",
"#7 c #344a5c",
"#8 c #747a8c",
"a` c #24323c",
"a. c #a4aeac",
"a# c #244251",
"aa c #1c222a",
"ab c #547a8c",
"ac c #748e94",
"ad c #0c4254",
"ae c #3c7284",
"af c #14323c",
"ag c #042a3c",
"ah c #243a3c",
"ai c #2c5261",
"aj c #1c2a33",
"ak c #6c868a",
"al c #244a5a",
"am c #143244",
"an c #142a33",
"ao c #14222b",
"ap c #8c9ea5",
"aq c #3c6a6c",
"ar c #2c6274",
"as c #243a48",
"at c #1c2a3f",
"au c #243246",
"av c #141a24",
"aw c #1c424c",
"ax c #4c7284",
"ay c #2c424e",
"az c #345261",
"aA c #4c7a84",
"aB c #2c4a5c",
"aC c #6c92ac",
"aD c #1c3230",
"aE c #1c3a49",
"aF c #242a33",
"aG c #142a3d",
"aH c #2c3a4b",
"aI c #347282",
"aJ c #0c2a37",
"aK c #74868c",
"aL c #1c3244",
"aM c #142234",
"aN c #2c323c",
"aO c #5c7a88",
"aP c #5c868e",
"aQ c #949ea6",
"aR c #446a7c",
"aS c #346a82",
"aT c #0c222c",
"aU c #144250",
"aV c #648e98",
"aW c #345a6c",
"aX c #5c6e7b",
"aY c #bccacc",
"aZ c #dce6e7",
"a0 c #24525c",
"a1 c #94a6ac",
"a2 c #fcf6f4",
"a3 c #0c1a2c",
"a4 c #2c7284",
"a5 c #04222c",
"a6 c #6c7a84",
"a7 c #1c4a54",
"a8 c #2c6a7c",
/* pixels */
"#P.l#W.2`e.J#e#dapapapap`W#z#z#zaQaQ#zaQaQap`Map#d#e`M.Q.2#5`X.g",
"#KaZ#h#e`maX.FaC.8aXaX.C.Ca6a6a6a6a6`m`V.C.8.8.8aC.F.c`m#e#YaZ#K",
"`C`Z.Faz`6as#A#S`6as`S`S.o`S`uaN`u.o`u`S`SasaH`6.Gaz`6aH`g`V#p`C",
"aYakaB`uas`0ai#SaHaH.o`S.o.4`Sau`S`S`S`S`S`S`6`6`B`wasa``S.i..#b",
"aQ`b`S`UaH`6ai.GaH`Sauauau.o.o.o.o`S.oauau`SasaH`Bai`haHa`.j.Z#z",
"`2#l#y#y.D#xaB.W.o.o`Sau`c`c#y`c`c`c#``ca`au`S`6.WalahaN#`#`#t#m",
"`2#t`UaF.Da`aB`o`Sau`c`c`c`c`c`caF`c`c`c`c`cau.o.W#u`u.DaF#`#t`2",
"`A#7anajaFaDa7.da`a`ajajajaFajaFaFaFaF.kajaF`c`caeala`.k`yaF`s`7",
"..`s.e`y.k.halaI#`#`ajaaaFajaFajao`y`y`yaF`c`Ja`aeaw`c.kaaan.iaK",
"`A`6`Kaa.TajawaSa`aoaFaoaaaoaoaoaF.e.5aoaaaT.i#G`oaE`y.Taa`J`N.x",
"`7`6aM`i`i`yaE#oaj`y`Kav`y`yanaT`Kaa.k.TaM`q.u`o.M`Eaj`i#LaM`s.x",
"`A`6a3`Y`Y`y`0aS`yao`Kaj`K.v#E`I`Kavav`i.sa##r.w`B.7an`Jan.v`6`A",
"#0`u#Dav`iaoaEa8#`.Ra3aTao.n#dai.h.Rava3an#4#2`.a4`taA.P.O#G#sak",
"#0`ca3`K`YaT`R#gamaJ.v.v.n`j`z#Na5`0.i.s`faxar`t`D#g`Gaq#o.t.yac",
".Vaj``````a##Z#.`O`a`z.I`1aw`l.1`laA.baw#Vab`#.M.X`4a0aPab`0aE#0",
".V`c`````f`z`.`5.z`F.taU#V.q#V.faSaA`F#uaiax#V`0.daU#Vaf`r.s#F#8",
"a6`x.O```L.ta0#3#o.FaL.s`JaTaJ#u`vaearaIaeaWaf.ma8.Uanaa.R.s`6`A",
"#0`w`w.NaP`L.qaI.P.7`faaao.s.vaf#X#Had`G`P#G.v.A.M.U`JaoaM.say`A",
"#e#a.N.3`0af`E#3aJaG.Rata3ao.v.v`h`q`raP.1afaJ.v`3.U`Jaa.R.s`6`A",
"#falaganaJa5as.r`q`J.Raa#Daoao`Jao.saTaE`0.PananaS.U`Jao`K.sas`A",
"ak`Q.vaM.van`h`3at`J`Kao`Kaoaoao.e`K`J`JaT.vaT`q.M.Uajao.s.say`A",
"`A`h.v.Bao.h`0aS.A`J`Jajao`y`J`KaoaMaM`JaMaoaGaLaSawan`y.B.say`A",
".x.aaM.eat#`.7#QaG.maM`Jao`J`y`TaM.haM`y.maMat`y.r.7#``yaM.may.x",
"#8#FaM#1aj.v`E`dataL.m.vanaM.m`Tan`J.R`Tat.eat`U.r`Q#``T`J.m.a`A",
"`A.a`I.maM.j`#a4aL.A`qaGaGaGaGataG#`aGaGaGaG`IaL#Q`#aL.m.m`I`s`A",
"`k#7aG`T.A.A`E.G`U.Aat`Tatatatatat`Tat`Tatat.Aau`B.SaL#y.mat`8aK",
"`2#q.jat`UaHaB#6.jaLaL.A.A#`at#`at#`#`.A#`.AaL`S#6aBaHauat.j#q`k",
"a1.Z.j`I`I.j.Y#SasasaLaLaLa`aLa`aLa`aLaLaL.jasas#S.Y.j.A`I.j.Za1",
"`p..#O.H`h#G.p#i`S`SaLauaLau#``U#``UaL`caLau`S`S#i.p.q`h.H#M..`p",
".0#Y#k#Raz.H#J.w.H.H.H.S.S.H.S.S.S.S`E.S.S.H.H.H.w#J.Haz#R#k#Y#j",
"a2#j.6..aX.c`j#TaR.K.K.K.K.K.Z.K.Z.K.K.n.K.K.KaR#TabaXaX`k.6.0#B",
"##a2.l#c#b#v.L#U`e#v`e`e#v#v#v`e#v#v#v`e`e`e`e#v#U.L`e#b#c.l#B##"
};
