/* XPM */
static char * back_xpm[] = {
"36 24 318 2",
"  	c None",
". 	c #E28E37",
"+ 	c #F69455",
"@ 	c #ECA059",
"# 	c #DE8D30",
"$ 	c #F68534",
"% 	c #FF7123",
"& 	c #FF6819",
"* 	c #EE7610",
"= 	c #DA8D2C",
"- 	c #F38832",
"; 	c #FF7726",
"> 	c #FF6C19",
", 	c #FF6B17",
"' 	c #FF6E1B",
") 	c #E97613",
"! 	c #D78E2C",
"~ 	c #F18A32",
"{ 	c #FF7C27",
"] 	c #FF7119",
"^ 	c #FF6F16",
"/ 	c #FF6F17",
"( 	c #FF6E18",
"_ 	c #FF711B",
": 	c #E67512",
"< 	c #EF8D33",
"[ 	c #FE8026",
"} 	c #FF7418",
"| 	c #FF7214",
"1 	c #FF7316",
"2 	c #FE7417",
"3 	c #FE7217",
"4 	c #FF7217",
"5 	c #FF731A",
"6 	c #E37312",
"7 	c #ED9135",
"8 	c #FD8428",
"9 	c #FF7818",
"0 	c #FF7514",
"a 	c #FE7616",
"b 	c #FF7617",
"c 	c #FF7616",
"d 	c #FE7517",
"e 	c #FF7416",
"f 	c #FF7619",
"g 	c #D96F11",
"h 	c #EB9333",
"i 	c #FD8827",
"j 	c #FF7B18",
"k 	c #FF7813",
"l 	c #FF7A15",
"m 	c #FF7A16",
"n 	c #FF7916",
"o 	c #FF7816",
"p 	c #FF7716",
"q 	c #FF7719",
"r 	c #E8781D",
"s 	c #C8761E",
"t 	c #CB791E",
"u 	c #D37D1E",
"v 	c #D9801E",
"w 	c #DF821D",
"x 	c #E4871F",
"y 	c #E98D21",
"z 	c #EC8E21",
"A 	c #E9891C",
"B 	c #ED9127",
"C 	c #F2AC4F",
"D 	c #E8912E",
"E 	c #FB8A25",
"F 	c #FF7F17",
"G 	c #FF7B12",
"H 	c #FF7C13",
"I 	c #FE7D14",
"J 	c #FE7C14",
"K 	c #FF7B14",
"L 	c #FE7B14",
"M 	c #FE7A15",
"N 	c #FE7915",
"O 	c #FF791A",
"P 	c #FF781B",
"Q 	c #FF771B",
"R 	c #FF761B",
"S 	c #FF751A",
"T 	c #FF741C",
"U 	c #FF731E",
"V 	c #FF711E",
"W 	c #FF701D",
"X 	c #FF7120",
"Y 	c #E8771E",
"Z 	c #E28D27",
"` 	c #F98921",
" .	c #FF8217",
"..	c #FF7E13",
"+.	c #FF7F14",
"@.	c #FE8014",
"#.	c #FE7F14",
"$.	c #FE7E14",
"%.	c #FF7E15",
"&.	c #FF7E14",
"*.	c #FE7D15",
"=.	c #FE7C15",
"-.	c #FF7B15",
";.	c #FE7715",
">.	c #FE7615",
",.	c #FF7516",
"'.	c #FE7516",
").	c #FE7316",
"!.	c #FE7216",
"~.	c #FE7117",
"{.	c #FF701B",
"].	c #E5751D",
"^.	c #DF8A20",
"/.	c #F6881D",
"(.	c #FF8316",
"_.	c #FF8012",
":.	c #FF8113",
"<.	c #FE8214",
"[.	c #FF8214",
"}.	c #FE8114",
"|.	c #FF8014",
"1.	c #FE7F15",
"2.	c #FE7E15",
"3.	c #FF7D14",
"4.	c #FE7A14",
"5.	c #FE7815",
"6.	c #FF7715",
"7.	c #FE7416",
"8.	c #FF7219",
"9.	c #E67219",
"0.	c #DC891C",
"a.	c #F58818",
"b.	c #FF8414",
"c.	c #FF8312",
"d.	c #FF8413",
"e.	c #FE8412",
"f.	c #FF8412",
"g.	c #FE8413",
"h.	c #FF8313",
"i.	c #FE8314",
"j.	c #FF8415",
"k.	c #FE8416",
"l.	c #FE8517",
"m.	c #FE8518",
"n.	c #FE861A",
"o.	c #FE841B",
"p.	c #FE831B",
"q.	c #FE821B",
"r.	c #FE811B",
"s.	c #FE801C",
"t.	c #FE7E1C",
"u.	c #FE7B1B",
"v.	c #FF781A",
"w.	c #FF791C",
"x.	c #E6751B",
"y.	c #EE8410",
"z.	c #FF8613",
"A.	c #FF8714",
"B.	c #FF8713",
"C.	c #FF8612",
"D.	c #FE8712",
"E.	c #FE8813",
"F.	c #FE8814",
"G.	c #FE8915",
"H.	c #FE8B16",
"I.	c #FE8C18",
"J.	c #FE8D19",
"K.	c #FE8E1A",
"L.	c #FE911C",
"M.	c #FE931D",
"N.	c #FE941E",
"O.	c #FE951F",
"P.	c #FD9621",
"Q.	c #FD9722",
"R.	c #FD9723",
"S.	c #FD9824",
"T.	c #FD9724",
"U.	c #FD9624",
"V.	c #FD9524",
"W.	c #FD9424",
"X.	c #FD9224",
"Y.	c #FD9025",
"Z.	c #FD8E26",
"`.	c #FD8C25",
" +	c #FE8A27",
".+	c #FF8A27",
"++	c #E27D17",
"@+	c #EE820E",
"#+	c #FE8C16",
"$+	c #FF8E1A",
"%+	c #FF8F1C",
"&+	c #FE901D",
"*+	c #FD921E",
"=+	c #FD9420",
"-+	c #FE9922",
";+	c #FD9A21",
">+	c #FD9B22",
",+	c #FD9C23",
"'+	c #FD9E22",
")+	c #FE9F22",
"!+	c #FD9F22",
"~+	c #FD9F23",
"{+	c #FE9E22",
"]+	c #FD9E23",
"^+	c #FD9D23",
"/+	c #FD9B23",
"(+	c #FE9A23",
"_+	c #FD9425",
":+	c #FD9225",
"<+	c #FF9127",
"[+	c #FF9128",
"}+	c #E18119",
"|+	c #EA8716",
"1+	c #FE9521",
"2+	c #FF9924",
"3+	c #FD9D21",
"4+	c #FE9E21",
"5+	c #FD9F21",
"6+	c #FDA021",
"7+	c #FDA120",
"8+	c #FDA321",
"9+	c #FEA321",
"0+	c #FDA421",
"a+	c #FEA422",
"b+	c #FDA322",
"c+	c #FDA122",
"d+	c #FDA022",
"e+	c #FD9A24",
"f+	c #FF9625",
"g+	c #FF9726",
"h+	c #E1851A",
"i+	c #EC8D16",
"j+	c #FF9E1F",
"k+	c #FFA322",
"l+	c #FDA520",
"m+	c #FDA620",
"n+	c #FDA720",
"o+	c #FEA820",
"p+	c #FDA920",
"q+	c #FEA920",
"r+	c #FEAA21",
"s+	c #FFAB22",
"t+	c #FFA922",
"u+	c #FFA822",
"v+	c #FFA823",
"w+	c #FFA623",
"x+	c #FFA423",
"y+	c #FFA223",
"z+	c #FFA024",
"A+	c #FF9E25",
"B+	c #FF9F27",
"C+	c #E28A1C",
"D+	c #ED9314",
"E+	c #FFA81E",
"F+	c #FFAB21",
"G+	c #FEA91F",
"H+	c #FEAA1F",
"I+	c #FEAB1F",
"J+	c #FEAD1E",
"K+	c #FEAE1F",
"L+	c #FDAE1F",
"M+	c #FEAF1F",
"N+	c #FFAE1E",
"O+	c #E39616",
"P+	c #B9740B",
"Q+	c #B16F0A",
"R+	c #B7730B",
"S+	c #BA750C",
"T+	c #BE770C",
"U+	c #C1790C",
"V+	c #C47A0C",
"W+	c #C67A0C",
"X+	c #C4770B",
"Y+	c #C67910",
"Z+	c #CE881F",
"`+	c #EE9814",
" @	c #FFAD1D",
".@	c #FFB21F",
"+@	c #FEB11E",
"@@	c #FDB11E",
"#@	c #FEB21E",
"$@	c #FDB31D",
"%@	c #FFB51E",
"&@	c #FFB01C",
"*@	c #C87D0D",
"=@	c #EB9B13",
"-@	c #FFB41C",
";@	c #FFBA1E",
">@	c #FFB81D",
",@	c #FEB71D",
"'@	c #FDB71D",
")@	c #FDB81D",
"!@	c #FEBA1E",
"~@	c #FFB51C",
"{@	c #CC820E",
"]@	c #E99E13",
"^@	c #FFBA1B",
"/@	c #FFBF1D",
"(@	c #FEBD1D",
"_@	c #FDBC1C",
":@	c #FEBE1D",
"<@	c #FFBA1C",
"[@	c #CE850E",
"}@	c #B46F08",
"|@	c #E7A113",
"1@	c #FFBF1B",
"2@	c #FFC51C",
"3@	c #FFC41C",
"4@	c #FFBF1C",
"5@	c #D08910",
"6@	c #B46F07",
"7@	c #E9A713",
"8@	c #FFC81B",
"9@	c #FFC81D",
"0@	c #D18C10",
"a@	c #B47309",
"b@	c #DF970F",
"c@	c #C98009",
"                                                                        ",
"                                          . + @                         ",
"                                      # $ % & *                         ",
"                                  = - ; > , ' )                         ",
"                              ! ~ { ] ^ / ( _ :                         ",
"                            < [ } | 1 2 3 4 5 6                         ",
"                        7 8 9 0 a b c a d e f g                         ",
"                    h i j k l m n n o o p c q r s t u v w x y z A B C   ",
"                D E F G H I I I J K L M N N o 9 O P Q R S T U V W X Y   ",
"            Z `  ...+.@.+.+.#.+.$.%.&.*.*.=.-.M N ;.>.,.'.).!.~./ {.].  ",
"        ^./.(._.:.<.<.<.[.<.}.}.}.|.@.1.$.2.3.J 4.5.5.6.;.'.7.).4 8.9.  ",
"    0.a.b.c.c.d.d.e.f.d.d.d.g.h.i.j.j.k.l.m.n.n.n.o.p.q.r.s.t.u.v.w.x.  ",
"    y.z.A.B.C.D.E.F.G.H.I.J.K.L.M.N.O.P.Q.R.S.S.T.U.V.W.X.Y.Z.`. +.+++  ",
"        @+#+$+%+&+*+=+P.-+;+>+,+'+)+!+!+~+!+{+]+^+,+/+(+S.U._+:+<+[+}+  ",
"            |+1+2+(+/+3+4+5+6+7+8+9+0+0+0+0+a+0+b+c+d+)+]+,+e+S.f+g+h+  ",
"                i+j+k+9+8+l+l+m+n+o+p+p+p+p+q+r+s+t+u+v+w+x+y+z+A+B+C+  ",
"                    D+E+F+G+H+I+J+K+K+L+L+M+N+O+P+Q+R+S+T+U+V+W+X+Y+Z+  ",
"                        `+ @.@+@@@#@$@$@$@%@&@*@                        ",
"                            =@-@;@>@,@'@)@!@~@{@                        ",
"                                ]@^@/@(@_@:@<@[@                        ",
"                                  }@|@1@2@3@4@5@                        ",
"                                      6@7@8@9@0@                        ",
"                                          a@b@c@                        ",
"                                                                        "};
