/* XPM */
static char *app_24_xpm[] = {
/* width height num_colors chars_per_pixel */
"    24    24      256            2",
/* colors */
"`` c #04468c",
"`. c #64a6cc",
"`# c #b4c6d4",
"`a c #1476cc",
"`b c #5c7e9c",
"`c c #d4e6fc",
"`d c #8ca6bc",
"`e c #748ea4",
"`f c #eceaec",
"`g c #0c5eac",
"`h c #5492bc",
"`i c #ecf6f4",
"`j c #8cc2ec",
"`k c #7ca6cc",
"`l c #5c9ed4",
"`m c #eceeec",
"`n c #0c528c",
"`o c #3476b4",
"`p c #2c5e8c",
"`q c #8cb2cc",
"`r c #3c86c4",
"`s c #fceee4",
"`t c #b4daf4",
"`u c #6492ac",
"`v c #74aed4",
"`w c #749ab4",
"`x c #7caed4",
"`y c #a4b2c4",
"`z c #0c6ebc",
"`A c #145294",
"`B c #fcf6ec",
"`C c #74a6cc",
"`D c #dcf6fc",
"`E c #a4bed4",
"`F c #6c9ec4",
"`G c #eceef4",
"`H c #347ebc",
"`I c #8cbadc",
"`J c #ccdee4",
"`K c #045aa4",
"`L c #8c9eb4",
"`M c #ecfefc",
"`N c #8cb2d4",
"`O c #749ec4",
"`P c #7caedc",
"`Q c #144e94",
"`R c #64a6dc",
"`S c #548abc",
"`T c #dceefc",
"`U c #246294",
"`V c #5c9acc",
"`W c #f4f6ec",
"`X c #94d2f4",
"`Y c #649ecc",
"`Z c #04529c",
"`0 c #2c6eac",
"`1 c #4c8ebc",
"`2 c #6496c4",
"`3 c #044e8c",
"`4 c #f4eef4",
"`5 c #bccedc",
"`6 c #8caecc",
"`7 c #5c92bc",
"`8 c #9cbedc",
".` c #84a6c4",
".. c #fceef4",
".# c #bcdef4",
".a c #246a9c",
".b c #4482b4",
".c c #94b2d4",
".d c #648aac",
".e c #649edc",
".f c #8496ac",
".g c #fce6dc",
".h c #1466b4",
".i c #f4eee4",
".j c #4476a4",
".k c #4c86bc",
".l c #84aecc",
".m c #d4e2fc",
".n c #74a2c4",
".o c #e4eefc",
".p c #f4f6fc",
".q c #0c52a4",
".r c #3c72b4",
".s c #6ca6d4",
".t c #94a6bc",
".u c #7496b4",
".v c #145eac",
".w c #7caad4",
".x c #3c76b4",
".y c #fcf2e4",
".z c #c4d6e4",
".A c #6c92ac",
".B c #7ca2bc",
".C c #9cbadc",
".D c #145aa4",
".E c #fcfef4",
".F c #74a6d4",
".G c #e4fefc",
".H c #a4cae4",
".I c #6ca2d4",
".J c #ecf2f4",
".K c #ccdaf4",
".L c #84b2dc",
".M c #6caadc",
".N c #548ecc",
".O c #64a2cc",
".P c #04569c",
".Q c #3472a4",
".R c #649ac4",
".S c #0c4e8c",
".T c #bcd2ec",
".U c #246eb4",
".V c #044a9c",
".W c #2476bc",
".X c #dceafc",
".Y c #7492b4",
".Z c #f4eae4",
".0 c #5492cc",
".1 c #ecfafc",
".2 c #94bee4",
".3 c #7caac4",
".4 c #0c568c",
".5 c #2c669c",
".6 c #94b2c4",
".7 c #bcd6ec",
".8 c #74b2dc",
"#` c #7c9aac",
"#. c #5486b4",
"## c #1c66ac",
"#a c #9ccee4",
"#b c #acced4",
"#c c #1c5a94",
"#d c #5c8eb4",
"#e c #146abc",
"#f c #fcfafc",
"#g c #e4f6fc",
"#h c #7c9ac4",
"#i c #4c92cc",
"#j c #6c92c4",
"#k c #9cc2ec",
"#l c #84aad4",
"#m c #447ec4",
"#n c #7c9ebc",
"#o c #3c7eb4",
"#p c #94aec4",
"#q c #7ca2c4",
"#r c #2466a4",
"#s c #4486c4",
"#t c #a4bee4",
"#u c #94badc",
"#v c #0c5aa4",
"#w c #044e9c",
"#x c #b4cadc",
"#y c #8caac4",
"#z c #2c6294",
"#A c #fcfaf4",
"#B c #74aac4",
"#C c #6ca2cc",
"#D c #8cb6dc",
"#E c #7cb2dc",
"#F c #64aadc",
"#G c #f4faf4",
"#H c #f4f2f4",
"#I c #bcd2e4",
"#J c #5c96bc",
"#K c #bce2fc",
"#L c #94b6d4",
"#M c #648eb4",
"#N c #f4f2ec",
"#O c #4c8abc",
"#P c #84b2d4",
"#Q c #e4f2f4",
"#R c #94aac4",
"#S c #1462a4",
"#T c #6c96b4",
"#U c #2472b4",
"#V c #247ac4",
"#W c #bcdaf4",
"#X c #044a8c",
"#Y c #d4eafc",
"#Z c #0c62ac",
"#0 c #ecf2ec",
"#1 c #347ab4",
"#2 c #7cb2d4",
"#3 c #a4b6c4",
"#4 c #145694",
"#5 c #548ebc",
"#6 c #dcf2fc",
"#7 c #2c72ac",
"#8 c #fcf2f4",
"a` c #64a2dc",
"a. c #fceadc",
"a# c #f4fafc",
"aa c #6caad4",
"ab c #3c7ab4",
"ac c #74aad4",
"ad c #ccdef4",
"ae c #94c2e4",
"af c #e4fafc",
"ag c #64a6d4",
"ah c #5492c4",
"ai c #ecf6fc",
"aj c #5c9edc",
"ak c #0c5294",
"al c #fceeec",
"am c #74aedc",
"an c #6c9ecc",
"ao c #eceefc",
"ap c #ccdeec",
"aq c #8cb2dc",
"ar c #7caee4",
"as c #5c9ad4",
"at c #f4f6f4",
"au c #649ed4",
"av c #0452a4",
"aw c #4c8ec4",
"ax c #bccee4",
"ay c #9cbee4",
"az c #4482bc",
"aA c #f4eeec",
"aB c #84aed4",
"aC c #74a2cc",
"aD c #fcf2ec",
"aE c #6c92b4",
"aF c #9cbae4",
"aG c #ecf2fc",
"aH c #64a2d4",
"aI c #0456a4",
"aJ c #3472ac",
"aK c #649acc",
"aL c #0c4e94",
"aM c #7492bc",
"aN c #f4eaec",
"aO c #7caacc",
"aP c #94b2cc",
"aQ c #3c7ebc",
"aR c #64aae4",
"aS c #f4f2fc",
"aT c #5c96c4",
"aU c #94b6dc",
"aV c #4c8ac4",
"aW c #e4f2fc",
"aX c #2472bc",
"aY c #000000",
"aZ c #000000",
"a0 c #000000",
"a1 c #000000",
"a2 c #000000",
"a3 c #000000",
"a4 c #000000",
"a5 c #000000",
"a6 c #000000",
"a7 c #000000",
"a8 c #000000",
/* pixels */
"`GataAaGaiaAaA`G`m#H`G`mat#H#H#H#HaA#NaGai#H#H`G",
"#N.Z.Z`G.J#N#H.J#NaAaAaA#NaAaA#N.J#NaA.J`G.i.Zat",
".ia.`BaG#g`Gai#gaG.J`GaG.paG.o.JaWaG.o#g.J#Aa.`s",
"aDaDat#x`E#p#p`6#y.l`6`q#L`q`q`q#l#y#p`E#x#f.iaD",
"`f#H#6#q.s`FaCam.Fac`vac`P#E#E`x`v`C.n`C#qaW`m`m",
"`ia##6`7aH`Y.s#F`vac.w`vac`P#Eac.Maa.s`R`7`D.p.p",
"`m`G#g#daH#Cac.saBaO`x#D#D#PaB#P.sacam.M#d`D`G`m",
"#NaAaf#Man`FaO.w`C`OaOaeaeaBaOaO.FaOaC#C#M#g`f`B",
"aG.J`GaVaHaRaC.8ac#2#l`6.#aq#Parac#q`l`Vah.J#N#H",
".p#Ha#`S`Y`R.u.w`C#D`t#I.7#W`N.L.n#qa`auah#0#H#0",
"`4`f#H#O`2`Y#R#y.``E`M`L`y#6.caP`N#y.O`YaT.J#N`f",
"aAaA`m#5#J#C.1`M#I.m.z#3.X`J.K#Y.Gax#C.R`h`m#H`i",
"aA#N#HaK`C#Ea#af#3`M.t`D`M`E.G`#.G#I`P.FaT`mataG",
"#A`f`4#saK`Y#`#`.m`##h.`.A#j#b.``w.Y`V`Y`h#H#0`G",
"#G#0#H.xaT.e.u#aaf`b.w.I`Y`x`k#KaO.uaHaH`1#H`mat",
"#0#0`4`o#m#s#M`XaE#j.R`las`.`Y.3`jaE#i#O.b`maAat",
"..`4#g#zaX#1`S`2#o.0#sawaw#saV#s`N#.#o`r.j#gaNaD",
"aAaAaW.5aX.U#r.5ab#s#saQaQ#1#o`oab.a.W#VaJ#g.J#N",
"#Nat`T#z`g.h#v.v###U.U.U######.D#Z#e`a`z#7#6aS#H",
"`m`B`T`U``.V.V.qaI#v#v`gaI`Z#v`Z`ZaIaIaI.Q#Y#H#0",
"`i#N#Q.d#caL.SaL.S`3aL.4aL.S.4aL`3`3.4#r.u`G.y#N",
".JaA#f.K#k#uaF.2aUaU.C.C#u.CayaU`8.2.C.Hap.E.y#N",
"#Q.ZaAa#.oaWaoaG`G.J.J.J.J.J`G.JaG.J.oaW.J.y`f.J",
"ai#8.gaDaAal.y`s.i#NaAaA`B#N.Z#N.ial#N`i#H.i#0af"
};
