/* XPM */
static char *app_32_xpm[] = {
/* width height num_colors chars_per_pixel */
"    32    32      256            2",
/* colors */
"`` c #040610",
"`. c #3c869c",
"`# c #04464c",
"`a c #a4a6b0",
"`b c #042632",
"`c c #444e5c",
"`d c #6cbbcc",
"`e c #242634",
"`f c #74868c",
"`g c #041620",
"`h c #2c6674",
"`i c #a4d6e4",
"`j c #043644",
"`k c #244654",
"`l c #446a84",
"`m c #dcdee4",
"`n c #1c192c",
"`o c #84d4e4",
"`p c #74a2b0",
"`q c #142633",
"`r c #54a6b4",
"`s c #245664",
"`t c #646e7c",
"`u c #243643",
"`v c #041e31",
"`w c #a4edfc",
"`x c #140a14",
"`y c #5c8694",
"`z c #94a2a6",
"`A c #142f3c",
"`B c #14363c",
"`C c #84deec",
"`D c #8cc2d4",
"`E c #040e14",
"`F c #b4bec4",
"`G c #344652",
"`H c #447e8c",
"`I c #34566c",
"`J c #647a84",
"`K c #243e4f",
"`L c #145664",
"`M c #4c626c",
"`N c #242e37",
"`O c #84969c",
"`P c #ecf3f5",
"`Q c #04303f",
"`R c #141823",
"`S c #142029",
"`T c #7cc9d4",
"`U c #c4d8dc",
"`V c #64b2c4",
"`W c #a4f6fc",
"`X c #144858",
"`Y c #acb4bc",
"`Z c #5c6b7a",
"`0 c #94d4e4",
"`1 c #5c9baa",
"`2 c #9cb1b0",
"`3 c #747f8b",
"`4 c #243147",
"`5 c #14525c",
"`6 c #0c0912",
"`7 c #54929c",
"`8 c #54566c",
".` c #041a2c",
".. c #a4e4fa",
".# c #142a3c",
".a c #143146",
".b c #14404f",
".c c #44566c",
".d c #7cbdcc",
".e c #3c7684",
".f c #044052",
".g c #74b2c0",
".h c #2c3742",
".i c #3c515a",
".j c #345f71",
".k c #9498a4",
".l c #4c879a",
".m c #a4aeaf",
".n c #042a3e",
".o c #244f5f",
".p c #ecebec",
".q c #1c1f27",
".r c #6ca3b6",
".s c #245f6f",
".t c #0c1e26",
".u c #b4f1fc",
".v c #14121a",
".w c #94e2ef",
".x c #343f4c",
".y c #f4fafc",
".z c #4c5163",
".A c #748e94",
".B c #346674",
".C c #1c2831",
".D c #5c8e9c",
".E c #9caab2",
".F c #0c0f18",
".G c #64828c",
".H c #0c2f41",
".I c #142134",
".J c #1c4751",
".K c #94daec",
".L c #9ce6f4",
".M c #0c1720",
".N c #64767e",
".O c #bcced4",
".P c #3c4856",
".Q c #547a8c",
".R c #2c3e4a",
".S c #5c6674",
".T c #547688",
".U c #2c3044",
".V c #b4e6fc",
".W c #1c2f44",
".X c #84b2c4",
".Y c #3c616f",
".Z c #548896",
".0 c #242234",
".1 c #9ce0f1",
".2 c #040a1c",
".3 c #0c2734",
".4 c #2c2a3c",
".5 c #0c3a4e",
".6 c #447684",
".7 c #54aab8",
".8 c #24394c",
"#` c #acf2fc",
"#. c #b4f7fc",
"## c #9ccadc",
"#a c #24707c",
"#b c #6c868c",
"#c c #7caac4",
"#d c #84929c",
"#e c #a4deec",
"#f c #145e74",
"#g c #546674",
"#h c #84cedc",
"#i c #346e84",
"#j c #143a4c",
"#k c #6cc2cc",
"#l c #8cdaec",
"#m c #8ccad4",
"#n c #448294",
"#o c #8c9ea4",
"#p c #64b6c4",
"#q c #b4bac4",
"#r c #74b6c4",
"#s c #949ea3",
"#t c #3c6880",
"#u c #648e9c",
"#v c #5c727c",
"#w c #dce6ec",
"#x c #9cb6ac",
"#y c #549aa4",
"#z c #3c7e8c",
"#A c #6caab4",
"#B c #acaebc",
"#C c #1c121c",
"#D c #7c8a90",
"#E c #4c6a7c",
"#F c #8cd6ec",
"#G c #2c586c",
"#H c #9ca2a4",
"#I c #1c2e38",
"#J c #94c6d8",
"#K c #bcc2c8",
"#L c #4c7d91",
"#M c #3c5664",
"#N c #6c7c86",
"#O c #54606b",
"#P c #2c323c",
"#Q c #8c99a4",
"#R c #f4f4f4",
"#S c #ccdae4",
"#T c #6cafbf",
"#U c #9cd5e8",
"#V c #649eac",
"#W c #1c515f",
"#X c #0c192d",
"#Y c #ace6f9",
"#Z c #1c3f4e",
"#0 c #84bccf",
"#1 c #0c3e4c",
"#2 c #7caec4",
"#3 c #2c5161",
"#4 c #2c5f71",
"#5 c #44526c",
"#6 c #242a44",
"#7 c #a4daf4",
"#8 c #5ca4b4",
"a` c #acedfc",
"a. c #140e24",
"a# c #04324c",
"aa c #141a2c",
"ab c #7ccae4",
"ac c #748294",
"ad c #0c0a1c",
"ae c #2c3a4c",
"af c #3c5264",
"ag c #f4edec",
"ah c #1c2234",
"ai c #0c2134",
"aj c #bcf2fc",
"ak c #fcfdfc",
"al c #5c92ac",
"am c #0c1024",
"an c #4c7284",
"ao c #bcf6fc",
"ap c #6492ac",
"aq c #448694",
"ar c #0c3641",
"as c #1c3644",
"at c #1c2a43",
"au c #0c2a3c",
"av c #7c8e98",
"aw c #6c828b",
"ax c #6c767c",
"ay c #1c3a4f",
"az c #74c2d4",
"aA c #1c5664",
"aB c #acf6fc",
"aC c #4c566c",
"aD c #a4aebc",
"aE c #141224",
"aF c #9caabc",
"aG c #9cdaec",
"aH c #a4defc",
"aI c #1c5e74",
"aJ c #4c8294",
"aK c #6cb6c4",
"aL c #7cb6c4",
"aM c #949eac",
"aN c #040a12",
"aO c #a4aaae",
"aP c #042a34",
"aQ c #445261",
"aR c #242a38",
"aS c #041a24",
"aT c #244a5a",
"aU c #446e7c",
"aV c #dce2e8",
"aW c #142a34",
"aX c #647281",
"aY c #243a44",
"aZ c #042231",
"a0 c #140e17",
"a1 c #5c8a9c",
"a2 c #94a6ac",
"a3 c #04121c",
"a4 c #b4c2c8",
"a5 c #344a54",
"a6 c #345a64",
"a7 c #24424e",
"a8 c #24323c",
/* pixels */
"ag#R`P`U`2#Q.k.k#Q.k#s#s#s`z`z#s`za2#H#s#s#s.k.kaM#Q#Q`2`U`P#R.p",
".yaV#qavaX#O#O#O#O`Z`Z`taX.N.N#N.N.N.NaXaX`t`Z#g#O#O`M#v`O`FaV.y",
"`P`Y.N.i.R.8ae.h`u.W.8`u`u`u`u`u.R`u`u`4`uas`u.8.haeae.Raf`J`Y`P",
".O`3`G`u`4`u`u`u.8ae.8aeaeae.8`4.haeae.8.8ae`u.8`uae.8`4`u`G`f.O",
"`z`M`4`4`4`4`u.ha8.ha8#Ia8`uae.h`u.8.ha8`N`u.ha8`uaY`u`4`4`u`M#o",
".A.i`4.U`4`N`Na8.Ca8`u`uaY`Ka7#Za7a7#Zas`u`ua8`N#Ia8a8`4`4#I.c.A",
"#b.P`NaRaR`e#P#Iae.W`Ba7.j.Z#VaL.g.r.Z#taTas.W`ua8`NaR.4.Uat.i#b",
"aw.P.C`e.0`e`N.C`Aay#t#2aH.L#Fabab#F....#2#t#Z.a.C`NaR`e`e.C`Gaw",
"#N`G`SaR`S`Nat.W.5.l.w.w`1.B#3.oaT`I.j.r`0#`.l`X.Wat.C.CaR`S.Paw",
"aw`Gah.C`S.Cau`Kalaj#r`h.b#Z.H.j.ja#ay.H`haL.uap`Kau.C`q.C`S`Gaw",
"ac.x`S`S`SaW`A.T#Y.X.J.aau`v.o.6#0aT.a.3`A.o`D.u.T.WaW`S.q`S.x#N",
"ac.R`S.q`S.3.o#J#U.o`A.I.C.W`y#i#T.r`Aat.Iai#W#U###Gau`S`S`S.hac",
"#N.h`R`R.tau.Z.u.l`v`A.Iai#E#L.f#a#7.Y.I`S`A.H#z.ua1`A.t`R`R#Paw",
"#N.4.M.F.t#ZaL.1`s`QaZaZa6`i#L.f.f#T#J.oai.``Q#W.1#0.J.M.v.M#P#N",
"#N`N.F.FaS`k.1`d`j.5#1aA#TazaIaI#f`..1`7.oaT`Q#j`d...o.M.F.F`N#N",
"#NaR```6aS.Ja`.7`Q#4a``T#l`r`0#7aG`o#k.w#F##aT.n`raB.oaS.FaN`e`3",
"#N.C`EaNaS`k#.`r.n.e.1.w#paza`..a``waK`T#h`0#3.n#8#.#3.taN`Ea8#N",
"#N`N.F```g.JaG`d.5aP#V#UaAaA.o.o#W.o`X#W.r`H.n`j`V#Y.J`gaN`E`N#N",
"`3aR.F```garaL.1`5`j#u.T.`ai`g.`.`a3`vaZan.D.f.f#l`Dar`E.F```e`3",
"`3`e.F`6`E`baJ#.#z`X.Y`g.FadaN.F.F`6a0```A`p.s#a#.`7aZ`g`6`6`e`3",
"`3.C`6.F.FaS#W#m`0`5`g#XaE`6`6`6`x`6.vaE.tar`L`T`0.JaS.M`6.F`e#N",
"#N`N.F`6.v`EaPaU#.aL#W`va3.F.F.M.F`6a3.`aZ.5#r#.#LaZ`g.F`6.Fa8aw",
".G`u.F.Fa0.M`g.H#V`w#0#W`QaP.`aS#XaZ`vaP`s#0.u`1`A`g.Ma0a0.F`Baw",
".GaY.F.v`x.F`S`v`Qaq`w`w#y#4#j#Zas.b#4#y`w#.aJa#.`.M`R.va0`Ea8.G",
"aw.h.F.Fa0`R.v.M.tau.j.ga``W.w`o#F.w`W`waL.j.H`v.MaE.va0a0.F.haw",
"#Naeam`R`n`R.F`R.I#X`v#j#4#L.r#0#0.raJ#4ar`v#X.I`R.Faa`n`R.Mae#N",
"ava5`Saaaaaaaa`S`R`n.I`S.3au.3.#auauau.3`q.I.qaa`Saa`Saaaa.I.P#D",
".E`c.Iaa#Xaa.I.I.q.q`R`S`Sahah`Sah.C`S`S`R`S.q`R.I.I.I#Xaa.I`caF",
"#S#N.x`4.I.I.I`S.Iahah.I`n`S.Iah`S`Sah`S`S`S`S.C.I`S.I.Ia8.xax#S",
"`P`Yax.P`u`4ataR.Wat#6`4#6at#6`4.W.Wat`4#6atatat`eat`4.h`Gax`Y`P",
"ak.p#K#D.S#O.z.z.c#5.zaC`8#5aQaf#MafaQ.z`8aC#5#5aQ.z#O#g#D#K#wak",
"agag#RaVa4aD.E#B.EaO`a`a`a.m`2#x#x`2.maO`a.EaO.E#B`aaOa4aV.y#Rag"
};
