/* XPM */
static char *setting_32_xpm[] = {
/* width height num_colors chars_per_pixel */
"    32    32      256            2",
/* colors */
"`` c #071624",
"`. c #348eb4",
"`# c #9c9f9e",
"`a c #0c5a64",
"`b c #54c4e0",
"`c c #525e6e",
"`d c #74c6e4",
"`e c #a0d2e0",
"`f c #6c90a0",
"`g c #0c3848",
"`h c #dcdee4",
"`i c #24728c",
"`j c #74def4",
"`k c #9cecfb",
"`l c #2c3846",
"`m c #4c7989",
"`n c #54b2c4",
"`o c #6cadbe",
"`p c #2c5463",
"`q c #5491a1",
"`r c #4cdaf4",
"`s c #8cc2cc",
"`t c #6c7880",
"`u c #0c262c",
"`v c #8cddec",
"`w c #114a57",
"`x c #c0edfb",
"`y c #a0bec8",
"`z c #c8d4e0",
"`A c #3185a1",
"`B c #306576",
"`C c #84969c",
"`D c #242837",
"`E c #2c4a5f",
"`F c #64c4e0",
"`G c #84aabc",
"`H c #579fb0",
"`I c #74cedc",
"`J c #9fe0eb",
"`K c #233743",
"`L c #9caeb4",
"`M c #246377",
"`N c #3f737c",
"`O c #4f8598",
"`P c #4c6d82",
"`Q c #79e6f9",
"`R c #6c848c",
"`S c #8ce7f8",
"`T c #6ea0af",
"`U c #d7fdfc",
"`V c #84d0df",
"`W c #4ca0b2",
"`X c #b0edf9",
"`Y c #71b7c9",
"`Z c #bef8fc",
"`0 c #31496c",
"`1 c #ace4f4",
"`2 c #40525c",
"`3 c #213f4e",
"`4 c #1c525f",
"`5 c #8cd0d6",
"`6 c #242f32",
"`7 c #68d2eb",
"`8 c #b1a3a7",
".` c #58bad8",
".. c #5498a8",
".# c #18303e",
".a c #3c6379",
".b c #8ed1e6",
".c c #307c88",
".d c #64daf0",
".e c #1f4751",
".f c #a4e6f8",
".g c #1c5b6c",
".h c #4cd4f4",
".i c #84dcf8",
".j c #468f9e",
".k c #6c98a8",
".l c #2c405c",
".m c #5c7688",
".n c #94e2e4",
".o c #b4bcc4",
".p c #408290",
".q c #8aa3ae",
".r c #649fae",
".s c #9fe0f5",
".t c #5c6d7c",
".u c #eff4f3",
".v c #243141",
".w c #7caac0",
".x c #2c5b6c",
".y c #3c474f",
".z c #78d5f2",
".A c #23384d",
".B c #718a97",
".C c #1c4e60",
".D c #212232",
".E c #347281",
".F c #a2f2fc",
".G c #2f404c",
".H c #7c7e90",
".I c #5e8392",
".J c #ccf8fc",
".K c #5cd4f1",
".L c #9caaac",
".M c #4c6371",
".N c #124250",
".O c #7ce2f5",
".P c #70b2bc",
".Q c #1c2834",
".R c #ccf2fc",
".S c #949ca1",
".T c #88bcc8",
".U c #b4aeac",
".V c #94eef8",
".W c #84d6f4",
".X c #b0f3fc",
".Y c #90d6d8",
".Z c #64d6f8",
".0 c #64b9cf",
".1 c #6498a8",
".2 c #416d79",
".3 c #4799af",
".4 c #2c313e",
".5 c #acd8ec",
".6 c #7c8e9c",
".7 c #fcdee4",
".8 c #a4ebf9",
"#` c #6d7e8a",
"#. c #bfdfec",
"## c #bac9d0",
"#a c #4ceafc",
"#b c #415d81",
"#c c #a4ced4",
"#d c #7ca6b4",
"#e c #f4eeec",
"#f c #04222c",
"#g c #64adc7",
"#h c #3c7b8f",
"#i c #84c8e0",
"#j c #94aaac",
"#k c #6ca6cc",
"#l c #7cbacc",
"#m c #3c4c72",
"#n c #fcf3f7",
"#o c #2f6b7f",
"#p c #7c969c",
"#q c #5cdafc",
"#r c #94b8c8",
"#s c #3c98b0",
"#t c #e4e9e8",
"#u c #e4f6fc",
"#v c #c4c2c4",
"#w c #245670",
"#x c #c4c6c4",
"#y c #5ccaf4",
"#z c #54728c",
"#A c #48a6c0",
"#B c #5c7e94",
"#C c #408a9c",
"#D c #acb6bc",
"#E c #141a28",
"#F c #6491a4",
"#G c #84e8fa",
"#H c #94a2ac",
"#I c #64bed8",
"#J c #7ccad9",
"#K c #4c7e8c",
"#L c #9cc6d4",
"#M c #849eac",
"#N c #2e4e60",
"#O c #64cae0",
"#P c #74d6e4",
"#Q c #4e8aa0",
"#R c #6fbed1",
"#S c #3c5a6c",
"#T c #6ce2f4",
"#U c #14222c",
"#V c #4c5a84",
"#W c #2c5274",
"#X c #8cdbf7",
"#Y c #3c7694",
"#Z c #64cefc",
"#0 c #afa5b9",
"#1 c #307e98",
"#2 c #1c495f",
"#3 c #4892b0",
"#4 c #40849e",
"#5 c #acb2c4",
"#6 c #416a87",
"#7 c #a4dae4",
"#8 c #c1f2f7",
"a` c #ccdae0",
"a. c #2c8aa4",
"a# c #5ca6b4",
"aa c #74a6b4",
"ab c #93d6e5",
"ac c #617280",
"ad c #246a7a",
"ae c #c2fefc",
"af c #344e6c",
"ag c #8ee2f7",
"ah c #bce6ec",
"ai c #64b2bc",
"aj c #94b2bc",
"ak c #84d1ef",
"al c #347590",
"am c #a4a2ac",
"an c #7cc2d4",
"ao c #748f97",
"ap c #143944",
"aq c #2c7382",
"ar c #7cdbf2",
"as c #343644",
"at c #547988",
"au c #5caed4",
"av c #142836",
"aw c #8c9aa5",
"ax c #344754",
"ay c #7cd0dd",
"az c #a4afb7",
"aA c #546e7c",
"aB c #74838e",
"aC c #94e7fa",
"aD c #b4e4f4",
"aE c #245564",
"aF c #94cfd4",
"aG c #5c97a4",
"aH c #446284",
"aI c #6cdbf2",
"aJ c #245c71",
"aK c #54d4f4",
"aL c #749ab4",
"aM c #345e6c",
"aN c #a4a8ac",
"aO c #546370",
"aP c #447a84",
"aQ c #84e2f5",
"aR c #64a6b4",
"aS c #3c4e54",
"aT c #fce6ec",
"aU c #fcfafc",
"aV c #84b2bc",
"aW c #ccfefc",
"aX c #5ce2fc",
"aY c #647684",
"aZ c #244e5c",
"a0 c #6cd6f0",
"a1 c #6ccae4",
"a2 c #14566c",
"a3 c #74acbe",
"a4 c #345361",
"a5 c #5c8f9f",
"a6 c #54ddf9",
"a7 c #747a84",
"a8 c #94dbea",
/* pixels */
"#e.u.ua``Lawaw.S.Saw.Saw.S.S`#`#.S`#.S.S.Saw.Saw.Sawawaza`.u.u#e",
"aU`h#D`CacaO`c`c`c.t.t.tac`t`t`t`t#``t`tacac.taO`c`caOac`C.o`haU",
"#u#DaY`2.G.A`l`l.A`l.l`K`l`K`K.A`K.v`K`K.v.A`l.#as`l`l.l`2aY#D#u",
"##aB.G.v.#`l.A.v.v.v.v.v`K.v.v`l.G`K.v.A`l.A.v`l.A`l.A.v`KaxaB##",
"#H.M.v.v.v.A.4.vas.v.4`l.4`K`l`K.v`l`K.4`l.v.4.4.v`K`K.v.#.v.M#H",
"ao`2.v.v`D.v.v.v`6.4.4.v`l`l.G`K.v`l`l`l`l.4.4`D.v.v.v`D.4.v`2ao",
"`R.y`D.4`D`D.v`6.#`K`K`K.G`3ap#N`E`3`3.G`K`K.v.#`6.4`D`D.4`DaSaB",
"`R.y.Q`D.D.D.4`D`K`3`3a4.2.a#6aLaL.2#S.2a4`3`3ap`6`6`D.D`D`Dax`R",
"aB.G.Q`D.D.Q.#`K`3aM`4.r`Z.w#K.8`X#h.P`Z.raZ#S.A`K.#.D.D.D`D.y`R",
"aB.y``.D.#.v.A`E.k`eaG.1`x`e`o`J`J`o`J`X..#F.5`f`E`K.#as#E#E.yaB",
"#`.G#U.Q.#.##N`p#d`Zab`Y.s`1`X`k.8.f.fagan`eaea3`p`pav.Q.D#U.G#`",
"#`.4`uav.#.2#Laa`q.f.8.f`x`1.sa8.b.s.s.s`X`kab`H`T#L`P.#av#U`l#`",
"aB.Gav.#ap`O`Z.fab`k.8ab.raP#Y#o.caGa8a8#X.8.8`V.8#8`O`3.#`u`l#`",
"#``K``.e`N`N`Yag`ka8ai.EaM`3.N.gad`o`Zan.p`oa8.F.s`Y.EaP`3``.Aa7",
"#`.##f.I`x`VayaCab`Had.N.#apap`w#oab.X`O#w`B..`JaCay.b#8`O#f.v#`",
"#`.G.#`m#7`J`Sarak.p.gaZap.#.A`p.j`X.b`BaE.N.N`qagaga8.s`m.#.Aa7",
"#``3.N`B#3.i`S`v`S.n.E.xaZ.x#Q#gan.F#g#w`g.#ap.eai.VaQ.3`M`w.e#`",
"aB.eaG.8`V#Gay`H.i`ka8.j#C#P`k`SaQaQa1#Q#2.##f`3aqayaC`V.s.r`3a7",
"`ta4`H.nar#G.0ad.p#R`k`j`Q`Qa0ar`ja1`Qag#4ap`K`KaJaiaQag.s.1a4.H",
"#``p`a#saI`Q.3#w.C`M.0.O.K#TaQ`v`v`Sa0aQ#R.g`w.N.g.3ar.z.3a2#NaB",
".H.2`W#OaI`j.c#2`3#2al.O.d`j#Ja5#F#i.zaI`Q`W.c.p#C#AaIa0#O`W#o#`",
"#`#Kayar`7`Iaq#2ap.N#Qar`7.OaGaj#ra#ar#Za0#G.FaQ`k.z.d#Oaray.p.B",
"aoa5#1#R.ia1`HaM`4a2#h.O.K`Q#R.1aG`Y`QaI`j`W`ial#1`n#Iar#I#C#F.I",
"ao`1.jakaC.0.Fa5aq#4`.#Z.ha6.O#J`I.O.Z.K#Z`i#Y#oaG.F.0`k#i#QaD#p",
".6.JaF`Z`X.5aea#`V`J#I`7a6aK.h#a#qa6.haI.3`B`saF`Hae.s`XaeaF.R.6",
".q`U`Xae`U.Jae`kaW`V`I.i.`.KaX.K#ya6.hau#k#4`H`U.8ae.JaWae`x`U#M",
"#M#.aV`T`G#L#.aWaW#7ae#J#1#s#A`F`b.Z`b`A#iae.5#8`Uah`y#daLaV#..q",
"azaA.e`0.l#m.Maj#8#u#8a3aR`O`Mal`Aa1aQaia3#.`U#8.q#b#m.l#N#N.m#5",
"`z.BaH#baf#V`0af#MaW#8`x`Ua5#w#Wal`nar`Z`xae`x`f`E`0#V#m#b#z.B`z",
"#u.o.I#B#z#b#b#b.x.Tae.X#i#4al#Y#1.``7`v`Z`Z#gaEaHaH#b#z#z.I`y.u",
"aU#t##.B.t.macat`N`O#c.Y`5`e#d#Q#3#l.Y`5`e#rataPatacaY.tao###t.u",
"aT#n#e#t#v.Laz.L#0`8#H`8aNaz.L#0#0`L#jaN`8.Uam`8#jazaN#v#t.u#n.7"
};
